/* XPM */
static const char *cmanager_xpm[] = {
/* columns rows colors chars-per-pixel */
"32 32 7 1",
"  c black",
". c #00BFBF",
"X c #BF00BF",
"o c #BFBF00",
"O c yellow",
"+ c #808080",
"@ c #C0C0C0",
/* pixels */
"................................",
"................................",
"................................",
"..............           .......",
"...........   OOOOOOO oooo .....",
".......... OOOOOOOOOOOO ooo ....",
"......... OOOOOOOOOOOOOO ooo ...",
"......... OOOOOOOOOOOOOOO ooo ..",
"........ OOOOOO     OOOOO ooo ..",
"....... OOOOO  ooo . OOO ooo ...",
"....... OOOOO ooo ...       ....",
"...... OOOOO ooo ...............",
"...... OOOOO ooo ...............",
"...... OOOO ooo ................",
"...... OOOO ooo ................",
"...... OOOO ooo ................",
"...... OOOO ooo ................",
"++++++ OOOOO ooo ...++++++++++++",
"XXXXXX OOOOO ooo XXXXXXXXXXXXXXX",
"@@@@@X OOOOO ooo X@@@@X@@@@X@@@@",
"XXXXXXX OOOOO ooo  XXXXXXXXXXXXX",
"@@@@X@@@ OOOOO  ooo         X@@@",
"XXXXXXXX OOOOOOO    OOOO ooo XXX",
"@@@X@@@@@ OOOOOOOOOOOOOOO ooo @@",
"@@@X@@@@@X OOOOOOOOOOOOOO ooo X@",
"XXXXXXXXXXX  OOOOOOOOOOO ooo XXX",
"@@X@@@@@@X@@ OOOOOOOOO ooo  @@@X",
"@@X@@@@@@X@@@             @@@@@X",
"@X@@@@@@X@@@@@@@X@@@@@@@X@@@@@@@",
"XXXXXXXXXXXXXXXXXXXXXXXXXXXXXXXX",
"X@@@@@@@X@@@@@@@X@@@@@@@@X@@@@@@",
"X@@@@@@@X@@@@@@@X@@@@@@@@X@@@@@@"
};
