/* XPM */
static const char *properties_xpm[] = {
/* columns rows colors chars-per-pixel */
"20 20 5 1",
"  c None",
"a c #FFFFFF",
"b c #D3D3D3",
"c c #4D4D4D",
"d c #4D4DA6",
/* pixels */
"                    ",
"                    ",
"         cccccc dd  ",
"        cbbbbbbcdd  ",
"       cbcbbbbbbdd  ",
"  cccccbcbcbbbbbdd  ",
"  caacbcbcbcbbbcdd  ",
"  cacbcacbcbccc dd  ",
"  caccaaacbcac   d  ",
"  caaaaaaacaac      ",
"  caaaaaaaaaac      ",
"  caccacccccac      ",
"  caaaaaaaaaac      ",
"  caccacccccac      ",
"  caaaaaaaaaac      ",
"  cccccccccccc      ",
"                    ",
"                    ",
"                    ",
"                    "
};