/* XPM */
static const char *layer_import_xpm[] = {
/* width height num_colors chars_per_pixel */
"    21    20       16            1",
/* colors */
"` c #000000",
". c #800000",
"# c #008000",
"a c #808000",
"b c #000080",
"c c #800080",
"d c #008080",
"e c None",
"f c #808080",
"g c #ff0000",
"h c #00ff00",
"i c #ffff00",
"j c #0000ff",
"k c #ff00ff",
"l c #00ffff",
"m c #ffffff",
/* pixels */
"eeeeeeeeeeeeeeeeeeeee",
"eeeeeeeeeeeeeeeeeeeee",
"e```eeeeeeee```eeeeee",
"`mim`````ee`eee`eeeee",
"`imimmim`eeeeeee`eeee",
"`mimiimi`eeeeeee`eeee",
"`imi`````````e`e`e`ee",
"`mi`aaaaaaa`eee```eee",
"`m`aaaaaaa`eeeee`eeee",
"``aaaaaaa`eeeeeeeeeee",
"`````````eeeeeeeeeeee",
"eeeeeeeeeeeeeeeeeeeee",
"ee````e``eee``e````ee",
"eee``ee```e```e``e``e",
"eee``ee```````e``e``e",
"eee``ee``e`e``e``e``e",
"eee``ee``eee``e```eee",
"eee``ee``eee``e``eeee",
"ee````e``eee``e``eeee",
"eeeeeeeeeeeeeeeeeeeee"
};
