/* XPM */
static const char *layer_open_xpm[] = {
/* width height num_colors chars_per_pixel */
"    20    20       16            1",
/* colors */
"` c #000000",
". c #bf0000",
"# c #00bf00",
"a c #bfbf00",
"b c #0000bf",
"c c #bf00bf",
"d c #00bfbf",
"e c None",
"f c #808080",
"g c #ff0000",
"h c #00ff00",
"i c #ffff00",
"j c #0000ff",
"k c #ff00ff",
"l c #00ffff",
"m c #ffffff",
/* pixels */
"eeeeeeeeeeeeeeeeeeee",
"eeeeeeeeeeeeeeeeeeee",
"e```eeeeeeee```eeeee",
"`eie`````ee`eee`eeee",
"`ieieeie`eeeeeee`eee",
"`eieiiei`eeeeeee`eee",
"`iei`````````e`e`e`e",
"`ei`aaaaaaa`eee```ee",
"`e`aaaaaaa`eeeee`eee",
"``aaaaaaa`eeeeeeeeee",
"`````````eee``eeeeee",
"eeeeeeeeeeee``eeeeee",
"eeeeeeeeeeee``eeeeee",
"eeeeeeeeeeee``eeeeee",
"eeeeeeeeeeee``eeeeee",
"eeeeeeeeeeee``eeeeee",
"eeeeeeeeeeee`````eee",
"eeeeeeeeeeee`````eee",
"eeeeeeeeeeeeeeeeeeee",
"eeeeeeeeeeeeeeeeeeee"
};
