/* XPM */
static const char *layer_export_xpm[] = {
/* width height num_colors chars_per_pixel */
"    20    20       16            1",
/* colors */
"` c #000000",
". c #bf0000",
"# c #00bf00",
"a c #bfbf00",
"b c #0000bf",
"c c #bf00bf",
"d c #00bfbf",
"e c None",
"f c #808080",
"g c #ff0000",
"h c #00ff00",
"i c #ffff00",
"j c #0000ff",
"k c #ff00ff",
"l c #00ffff",
"m c #ffffff",
/* pixels */
"eeeeeeeeeeeeeeeeeeee",
"e````e``e``e````eeee",
"e``eee``e``e``e``eee",
"e``eeee```ee``e``eee",
"e````ee```ee``e``eee",
"e``eeee```ee````eeee",
"e``eee``e``e``eeeeee",
"e````e``e``e``eeeeee",
"eeeeeeeeeeeeeeeeeeee",
"eef`eeeeeeeeeeeeeeee",
"ef`eeeee```eeeeeeeee",
"e`eeeee`mim`````eeee",
"e`eeeee`imimmim`eeee",
"e`ee`ee`mimiimi`eeee",
"ef`ee`e`imi````````e",
"eef`````mi`aaaaaaa`e",
"eeeee`e`m`aaaaaaa`ee",
"eeee`ee``aaaaaaa`eee",
"eeeeeee`````````eeee",
"eeeeeeeeeeeeeeeeeeee"
};
