/* XPM */
static const char *layer_down_xpm[] = {
/* columns rows colors chars-per-pixel */
"20 20 3 1",
"  c None",
"a c Black",
"b c #808080",
/* pixels */
"                    ",
"                    ",
"                    ",
"                    ",
"                    ",
"   baa        aab   ",
"   baa        aab   ",
"    baa      aab    ",
"    baa      aab    ",
"     baa    aab     ",
"     baa    aab     ",
"      baa  aab      ",
"      baa  aab      ",
"       baaaab       ",
"       baaaab       ",
"        baab        ",
"        baab        ",
"                    ",
"                    ",
"                    "
};
