/* XPM */
static const char *layer_save_xpm[] = {
/* width height num_colors chars_per_pixel */
"    20    20       16            1",
/* colors */
"` c #000000",
". c #bf0000",
"# c #00bf00",
"a c #bfbf00",
"b c #0000bf",
"c c #bf00bf",
"d c #00bfbf",
"e c None",
"f c #808080",
"g c #ff0000",
"h c #00ff00",
"i c #ffff00",
"j c #0000ff",
"k c #ff00ff",
"l c #00ffff",
"m c #ffffff",
/* pixels */
"eeeeeeeeeeeeeeeeeeee",
"e``eeee```eeeeeeeeee",
"e``eee`eee`eeeeeeeee",
"e``eeeeeeee`eeeeeeee",
"e``eeeeee`e`e`eeeeee",
"e``eeeeeee```eeeeeee",
"e``eeeeeeee`eeeeeeee",
"e`````e````````````e",
"e`````e`a`eeeeee`e`e",
"eeeeeee`a`eeeeee```e",
"eeeeeee`a`eeeeee`a`e",
"eeeeeee`a`eeeeee`a`e",
"eeeeeee`aa``````aa`e",
"eeeeeee`aaaaaaaaaa`e",
"eeeeeee`aa```````a`e",
"eeeeeee`aa````ee`a`e",
"eeeeeee`aa````ee`a`e",
"eeeeeee`aa````ee`a`e",
"eeeeeeee```````````e",
"eeeeeeeeeeeeeeeeeeee"
};
