/* XPM */
static const char *proj_save_xpm[] = {
/* width height num_colors chars_per_pixel */
"    20    20       16            1",
/* colors */
"` c #000000",
". c #800000",
"# c #008000",
"a c #808000",
"b c #000080",
"c c #800080",
"d c #008080",
"e c None",
"f c #808080",
"g c #ff0000",
"h c #00ff00",
"i c #ffff00",
"j c #0000ff",
"k c #ff00ff",
"l c #00ffff",
"m c #ffffff",
/* pixels */
"eeeeeeeeeeeeeeeeeeee",
"eeeeeeeeeeeeeeeeeeee",
"eee``````````````eee",
"eee`a`eeeeeeee`e`eee",
"eee`a`eeeeeeee```eee",
"eee`a`eeeeeeee`a`eee",
"eee`a`eeeeeeee`a`eee",
"eee`a`eeeeeeee`a`eee",
"eee`a`eeeeeeee`a`eee",
"eee`aa````````fa`eee",
"eee`aaaaaaaaaaaa`eee",
"eee`aa`````````a`eee",
"eee`aa``````ee`a`eee",
"eee`aa``````ee`a`eee",
"eee`aa``````ee`a`eee",
"eeee`````````````eee",
"eeeeeeeeeeeeeeeeeeee",
"eeeeeeeeeeeeeeeeeeee",
"eeeeeeeeeeeeeeeeeeee",
"eeeeeeeeeeeeeeeeeeee"
};
