/* XPM */
static const char *rd_select_road_xpm[] = {
/* width height num_colors chars_per_pixel */
"    20    20       16            1",
/* colors */
"` c #000000",
". c #bf0000",
"# c #00bf00",
"a c #bfbf00",
"b c #0000bf",
"c c #bf00bf",
"d c #00bfbf",
"e c None",
"f c #808080",
"g c #ff0000",
"h c #00ff00",
"i c #ffff00",
"j c #0000ff",
"k c #ff00ff",
"l c #00ffff",
"m c #ffffff",
/* pixels */
"eeeeeeeeeeeeeeeeeeee",
"eeeeeeeeeeeeeeeee`ee",
"eeeeeeeeeeeeeeee`fee",
"eeeeeeeeeeeeeee`feee",
"eeeeeeeeeeeeef`feeee",
"eeeeeeef`````feeeeee",
"eeeeee``eeeeeeeeeeee",
"eeeeef`eee`eeeeeeeee",
"eeeee`eeee``eeeeeeee",
"eeeee`eeee```eeeeeee",
"eeeee`eeee````eeeeee",
"eeeee`eeee`````eeeee",
"eeeee`eeee``````eeee",
"eeee`feeee```````eee",
"eeee`eeeee````eeeeee",
"eee`feeeee`ee``eeeee",
"ee`feeeeeeeee``eeeee",
"eeeeeeeeeeeeee``eeee",
"eeeeeeeeeeeeee``eeee",
"eeeeeeeeeeeeeeeeeeee"
};
