/* XPM */
static const char *tin_trim_xpm[] = {
/* columns rows colors chars-per-pixel */
"20 20 16 1",
"  c black",
". c #BF0000",
"X c #00BF00",
"o c #BFBF00",
"O c #0000BF",
"+ c #8E008E",
"@ c #00BFBF",
"# c #C0C0C0",
"$ c #808080",
"% c red",
"& c green",
"* c yellow",
"= c blue",
"- c magenta",
"; c cyan",
": c gray100",
/* pixels */
"####################",
"##+#################",
"##+++############$ #",
"##+#++##########$ $#",
"##+++#++#######$ $##",
"#+#+#+##++####$ $###",
"#+#+##+###+##$ $####",
"#+#+###+###+$ $#####",
"#+##+###+##$ $######",
"#+##+###+#$ $#++####",
"#+##+####$ $####++##",
"#+##+###$ $#######+#",
"#+###+#$ $#+#####+##",
"+####+# $###+###+###",
"+####+######+###+###",
"+####+#######+#+####",
"++####+#####+++#####",
"##+++#+#++++########",
"#####+++############",
"####################"
};
