/* XPM */
static const char *view_profile_xpm[] = {
/* columns rows colors chars-per-pixel */
"20 20 16 1",
"  c black",
". c #BF0000",
"X c #00BF00",
"o c #BFBF00",
"O c #0000BF",
"+ c #BF00BF",
"@ c #00BFBF",
"# c None",
"$ c #808080",
"% c red",
"& c green",
"* c #FF8000",
"= c blue",
"- c magenta",
"; c cyan",
": c gray100",
/* pixels */
"####################",
"####################",
"###########%########",
"## #######%%%#######",
"#  ######XX%XX######",
"## ######XX##XX#####",
"## #####XX###XX#####",
"#  #####XX####XX####",
"## ####XX#####XX####",
"## ****************#",
"#  X###XX#######XXX#",
"## X##XX#########XX#",
"## XX#XX############",
"#  XXXXX############",
"## #XXX#############",
"## #XX##############",
"#                  #",
"## ### ### ### ### #",
"####################",
"####################"
};
