/* XPM */
static const char *view_options_xpm[] = {
/* columns rows colors chars-per-pixel */
"21 21 13 1",
"  c black",
". c #333366",
"X c #555555",
"o c #777777",
"O c #666699",
"+ c #FF6600",
"@ c #FFCC00",
"# c yellow",
"$ c gray60",
"% c #9999FF",
"& c None",
"* c #CCCCFF",
"= c gray100",
/* pixels */
"&&&&&&&     &&&&&&&&&",
"&&&  && %%% &&&&&&&&&",
"&& %% & %%* &&  &&&&&",
"& %%%O  %%* & ** &&&&",
"&  %O%% %%*  **** &&&",
"& % %%%%%%*%****  &&&",
"    %%%%   ****    &&",
" O%%%%% ... **=*** &&",
" %%%%** .OO =**=** &&",
"     ** .OO **=    &&",
" .O ***%   **= $@@  &",
" O *** ****   $## + o",
"&  ** O *** % ==X+  o",
"& O  OO **= % @X@   o",
"& O OO  *=% % X@X + o",
"&&  O &     % @XX+  o",
"&&&  && %%%   XX@   o",
"&&&&&&& O%% o X@X   o",
"&&&&&&&     o  XX   o",
"&&&&&&&&&&&&&oo   oo&",
"&&&&&&&&&&&&&&&ooo&&&"
};
