/* XPM */
static const char *Enviro_xpm[] = {
/* columns rows colors chars-per-pixel */
"32 32 46 1",
"  c #393939",
". c #336666",
"X c gray26",
"o c gray30",
"O c #555555",
"+ c #5F5F5F",
"@ c gray40",
"# c #777777",
"$ c #003399",
"% c #006699",
"& c #336699",
"* c #0066CC",
"= c #3366CC",
"- c #666699",
"; c #339966",
": c #669966",
"> c #339999",
", c #3399CC",
"< c #3399FF",
"1 c #669999",
"2 c #6699CC",
"3 c #6699FF",
"4 c #66CC99",
"5 c #996666",
"6 c #999966",
"7 c #CC9966",
"8 c #868686",
"9 c gray59",
"0 c gray60",
"q c #ADA990",
"w c #A0A0A4",
"e c #B2B2B2",
"r c #9999CC",
"t c #99CC99",
"y c #99CCCC",
"u c #99CCFF",
"i c #A6CAF0",
"p c #CC9999",
"a c #CCCC99",
"s c #CCFF99",
"d c #FFCC99",
"f c #C0C0C0",
"g c gray80",
"h c #C0DCC0",
"j c #EFD6C6",
"k c #E7E7D6",
/* pixels */
"====&t1&&=&=====================",
"===%2t1:1&=&&===================",
"====2at:::&&%===================",
"=====fat:;:1&&&&=&==============",
"=====2jat:::::811&==============",
"======ejja:taaq8991&============",
"======ejjaasssaaa9881===========",
"=====2fjjappaaaaaa8.:t2=========",
"====,w0gjppaaaq68aq..:t2========",
"===,ww0qaadda8#6@6a@.:1t2=======",
"=2ewww988pdq66777qd#.11tt=======",
",ee09w88889986p77aq..11tw=*=====",
"2af0#88#8888888qaaq.;11tw,,=====",
"2ffq8888#889###qaa:.:11tfh1&====",
",ugaaa88###8#@O+#@@#1114tt1>*===",
"33ifw099#+@#@+OO++@:::111tt1=*==",
"333ewep8@#@+OXXoo+@@;;;1tt1ww,=*",
"333fqaq8@#@OX XO###@;;:1t11tt11=",
"332yw888##+OO+#88898:;11111111t2",
",,,2y#@6#+XX@57989qw1:::1111112=",
",,,,y1.8#O X#q8880ef8.:111111,==",
"====21@++oOO66@#9wefw011e012====",
"====21@+O+@58+.1w9wjkg0fy2======",
"====1##+o86#+.1teegyrr23,=======",
"====1:##@88.;:twer2==<<<========",
"====9#@#8#..:tty2,=,,,==========",
"====w8#888.;t022==,,============",
"====9188#9:9a,==================",
"=====18889:1t===================",
"=====&&-80t1====================",
"&&=&$$$&&ej-====================",
"&%%$$$$$$-1====================="
};
