/* XPM */
static const char *image_xpm[] = {
/* columns rows colors chars-per-pixel */
"16 16 5 1",
"  c black",
". c red",
"X c #808080",
"o c gray100",
"O c None",
/* pixels */
"OOOOOOOOOOOOOOOO",
"OOOOOOOOOOOOOOOO",
"OOO..........OOO",
"OOO.OXXOXOXX.OOO",
"OO.XXOXOOOOO.OOO",
"OO.XXOXOOoOOX.OO",
"OO.XXOXOooOXX.OO",
"OO.XXOXOooOXO.OO",
"O.XXOOOOOOXXO.OO",
"O.XOOoOXXXXXXX.O",
"O.OOooOOOOXOOX.O",
"O.OOooOXXOXXOX.O",
".XOOOOXXXOOXXO.O",
".XXXXXXXXXOOXXX.",
"................",
"OOOOOOOOOOOOOOOO"
};
