/* XPM */
static const char *road_xpm[] = {
/* columns rows colors chars-per-pixel */
"16 16 5 1",
"  c black",
". c #808000",
"X c yellow",
"o c gray100",
"O c None",
/* pixels */
"OOOOOOOOOOOOOOOO",
"OOOOOOOOoOOOOOOO",
"OOOOOOO . OOOOOO",
"OOOOOOOo.oOOOOOO",
"OOOOOO  .  OOOOO",
"OOOOOOo X oOOOOO",
"OOOOO       OOOO",
"OOOOOo  X  oOOOO",
"OOOO         OOO",
"OOOOo   X   oOOO",
"OOO           OO",
"OOOo    X    oOO",
"OO      X      O",
"OOo     X     oO",
"OOOOOOOOOOOOOOOO",
"OOOOOOOOOOOOOOOO"
};
