/* XPM */
static const char *building_xpm[] = {
/* columns rows colors chars-per-pixel */
"20 20 16 1",
"  c black",
". c #C7A489",
"X c #00BF00",
"o c #FF8784",
"O c #0000BF",
"+ c gray100",
"@ c #00BFBF",
"# c None",
"$ c #808080",
"% c red",
"& c green",
"* c yellow",
"= c blue",
"- c magenta",
"; c cyan",
": c gray100",
/* pixels */
"####################",
"####################",
"############## #####",
"############  . ####",
"##########  .... ###",
"########  ....... ##",
"######  .......... #",
"##### . ..........  ",
"#### ... ....... ++ ",
"### ..... .... ++++ ",
"## ....... . ++++++ ",
"#           +++++++ ",
"# +++++++++ +++++++ ",
"# +++++++++ +++++  #",
"# +++++++++ +++  ###",
"# +++++++++ +  #####",
"#            #######",
"####################",
"####################",
"####################"
};
