/* XPM */
static const char *layer_create_xpm[] = {
/* columns rows colors chars-per-pixel */
"20 20 5 1",
"  c None",
"a c Black",
"b c #FFFFFF",
"c c #808080",
"d c #FFFF00",
/* pixels */
"                    ",
"                    ",
"   dc  d  c         ",
"   cdc b cd         ",
"    cdcdcd          ",
"    dcdbdccc        ",
"   cccbdcbb         ",
"     bdbdc          ",
"    cdcdcd          ",
"   cdccb cca        ",
"    c  d  aa        ",
"          aa        ",
"          aa        ",
"          aa        ",
"          aa        ",
"          aa        ",
"          aaaaa     ",
"          aaaaa     ",
"                    ",
"                    "
};