/* XPM */
static const char *loc_xpm[] = {
/* width height ncolors chars_per_pixel */
"20 20 2 1",
/* colors */
"` c None",
"a c #0000FF",
/* pixels */
"````````````````````",
"````a```````````````",
"```aaa``````````````",
"````a```````````````",
"``a`a`a````````a````",
"`aaaaaaa``````aaa```",
"``a`a`a````````a````",
"````a````````a`a`a``",
"```aaa``````aaaaaaa`",
"````a````````a`a`a``",
"````````a``````a````",
"```````aaa````aaa```",
"````````a``````a````",
"``````a`a`a`````````",
"`````aaaaaaa````````",
"``````a`a`a`````````",
"````````a```````````",
"```````aaa``````````",
"````````a```````````",
"````````````````````"
};
