/* XPM */
static const char *nav_xpm[] = {
/* width height ncolors chars_per_pixel */
"20 20 2 1",
/* colors */
"` c None",
"a c #0000FF",
/* pixels */
"````````````````````",
"````````````````````",
"````````````````````",
"`````````aa`````````",
"````````aaaa````````",
"```````aaaaaa```````",
"`````````aa`````````",
"``````a``aa``a``````",
"`````aa``aa``aa`````",
"````aaaaaaaaaaaa````",
"````aaaaaaaaaaaa````",
"`````aa``aa``aa`````",
"``````a``aa``a``````",
"`````````aa`````````",
"```````aaaaaa```````",
"````````aaaa````````",
"`````````aa`````````",
"````````````````````",
"````````````````````",
"````````````````````"
};
