/* XPM */
static const char *nav_slow_xpm[] = {
/* width height ncolors chars_per_pixel */
"20 20 3 1",
/* colors */
"` c #000000",
"a c None",
"b c #0000FF",
/* pixels */
"aaaaaaaaaaaaaaaaaaaa",
"aaaaaaaaaaaaaaaaaaaa",
"aaaaaaabaaaaaaaaaaaa",
"aaaaaabbbaaaaaaaaaaa",
"aaaaabbbbbaaaaaaaaaa",
"aaaaaaabaaaaaaaaaaaa",
"aaaabaabaabaaaaaaaaa",
"aaabbaabaabbaaaaaaaa",
"aabbbbbbbbbbbaaaaaaa",
"aaabbaabaabbaaaaaaaa",
"aaaabaabaabaaaaaaaaa",
"aaaaaaabaaaaaaaaaaaa",
"aaaaabbbbbaaaaaaaaaa",
"aaaaaabbbaaaaaaaaaaa",
"aaaaaaabaaa```````aa",
"aaaaaaaaaaa```````aa",
"aaaaaaaaaaaaaaaaaaaa",
"aaaaaaaaaaaaaaaaaaaa",
"aaaaaaaaaaaaaaaaaaaa",
"aaaaaaaaaaaaaaaaaaaa"
};
