/* XPM */
static const char *placemark_xpm[] = {
/* columns rows colors chars-per-pixel */
"20 20 33 1",
"  c black",
". c #060300",
"X c #0A0500",
"o c #0C0500",
"O c #180B00",
"+ c #200E00",
"@ c #220F00",
"# c #261100",
"$ c #321700",
"% c #361800",
"& c #3C1B00",
"* c #421E00",
"= c #462000",
"- c #602B00",
"; c #682F00",
": c #6A3000",
"> c #FFA75F",
", c #FFA861",
"< c #FFAF6D",
"1 c #FFB171",
"2 c #FFB87D",
"3 c #FFC493",
"4 c #FFC595",
"5 c #FFD0A9",
"6 c #FFD1AB",
"7 c #FFD4B1",
"8 c None",
"9 c #FFDDC1",
"0 c #FFE8D5",
"q c #FFEBDB",
"w c #FFF2E7",
"e c #FFF5ED",
"r c #FFF8F3",
/* pixels */
"88888888888888888888",
"88888888888888888888",
"888888888888888 8888",
"88888   8888888 8888",
"8888  eo88888     88",
"888 %7q-8888888 8888",
"88  14 +X888888 8888",
"88 ,, #, =8888888888",
"88 ,  >,6.+888888888",
"88     ,6rr   O;8888",
"888888  6rr +wr 8888",
"8888888  r  90  8888",
"88888888  &36  88888",
"88888888  <2+*888888",
"88888888 ,> : 888888",
"88888888 , +8$ 88888",
"88888888   888$ 8888",
"888888888888888  888",
"88888888888888888888",
"88888888888888888888"
};
