/* XPM */
static const char *play_play_xpm[] = {
/* columns rows colors chars-per-pixel */
"16 15 3 1 ",
"  c black",
". c #808080",
"X c None",
/* pixels */
"XXXXXXXXXXXXXXXX",
"XXXXXXXXXXXXXXXX",
"XXXXXXXXXXXXXXXX",
"XXXXX .XXXXXXXXX",
"XXXXX  .XXXXXXXX",
"XXXXX   .XXXXXXX",
"XXXXX    .XXXXXX",
"XXXXX     .XXXXX",
"XXXXX    .XXXXXX",
"XXXXX   .XXXXXXX",
"XXXXX  .XXXXXXXX",
"XXXXX .XXXXXXXXX",
"XXXXXXXXXXXXXXXX",
"XXXXXXXXXXXXXXXX",
"XXXXXXXXXXXXXXXX"
};
