/* XPM */
static const char *play_record1_xpm[] = {
/* columns rows colors chars-per-pixel */
"16 15 2 1 ",
"  c red",
". c None",
/* pixels */
"................",
"................",
"................",
"....   ....  ...",
"...     ..   ...",
"..       ..  ...",
"..       ..  ...",
"..       ..  ...",
"..       ..  ...",
"...     ...  ...",
"....   ...    ..",
"................",
"................",
"................",
"................"
};
