/* XPM */
static const char *points_xpm[] = {
/* width height ncolors chars_per_pixel */
"20 20 2 1",
/* colors */
"` c None",
"a c #FFFF00",
/* pixels */
"````````````````````",
"````````````````````",
"````````````````````",
"`````````aaa````````",
"````````aaaaa```````",
"````````aaaaa```````",
"````````aaaaa```````",
"`````````aaa````````",
"````````````````````",
"````````````````````",
"````aaa`````````````",
"```aaaaa``````aaa```",
"```aaaaa`````aaaaa``",
"```aaaaa`````aaaaa``",
"````aaa``````aaaaa``",
"``````````````aaa```",
"````````````````````",
"````````````````````",
"````````````````````",
"````````````````````"
};
