/* XPM */
static const char *refresh_xpm[] = {
/* columns rows colors chars-per-pixel */
"20 20 90 1 ",
"  c #434678",
". c #45497B",
"X c #484C7F",
"o c #018101",
"O c #068707",
"+ c #078807",
"@ c #0D8B11",
"# c #1B9529",
"$ c #1C9529",
"% c #55B556",
"& c #43A967",
"* c #4A4F82",
"= c #4C5287",
"- c #4E558B",
"; c #50598F",
": c #5A5D8C",
"> c #525C92",
", c #545F97",
"< c #5B6190",
"1 c #5D6696",
"2 c #576199",
"3 c #58649C",
"4 c #59669E",
"5 c #5F6A9C",
"6 c #6370A3",
"7 c #6576AA",
"8 c #687EB2",
"9 c #6B83BB",
"0 c #7C90BE",
"q c #3B91E7",
"w c #6E8AC5",
"e c #7F98C7",
"r c #7192CE",
"t c #6E93D1",
"y c #7499D5",
"u c #779FDD",
"i c #79A5E3",
"p c #7AAAEA",
"a c #7CADEE",
"s c #89CC9A",
"d c #9C9CFF",
"f c #B1B8FF",
"g c #8CCAC1",
"h c #90C7EA",
"j c #8CC5FF",
"k c #8FC5FF",
"l c #93C7FF",
"z c #99CAFF",
"x c #9CCBFF",
"c c #9ECCFF",
"v c #A7D4EA",
"b c #A9D5EA",
"n c #B4DAEA",
"m c #A0CEFF",
"M c #A7D3FF",
"N c #A9D3FF",
"B c #ABD4FF",
"V c #B1D8FF",
"C c #B5DAFF",
"Z c #B6DAFF",
"A c #B8DCFF",
"S c #C2CFE2",
"D c #C6D9EE",
"F c #C0D4F0",
"G c #C5D8F2",
"H c #C0DEFF",
"J c #CFE0EF",
"K c #C4E1FF",
"L c #D3E2F0",
"P c #DCE7F2",
"I c #E3E7EB",
"U c #EDEDEE",
"Y c #E1EAF4",
"T c #EAEFF6",
"R c #EEF2F7",
"E c #E1F0FF",
"W c #E3F2FF",
"Q c #EFF7FF",
"! c gray95",
"~ c #F4F4F4",
"^ c gray97",
"/ c #F3F8FF",
"( c #F8F8F8",
") c gray98",
"_ c #FBFBFB",
"` c gray99",
"' c #FEFEFE",
"] c #FEFFFF",
"[ c gray100",
"{ c None",
/* pixels */
"{{{{{{{{{{{{{{{{{{{{",
"{{{{{{{{{{{{{{{{{{{{",
"{{{attttttttt4{{{{{{",
"{{{p''__~~UIS4e{{{{{",
"{{{i''''''/QG4q0{{{{",
"{{{u_''''/QWF444{{{{",
"{{{y_''%oosoKfd4{{{{",
"{{{r_'%oooooKKH2{{{{",
"{{{w~_OsWsooKAZ,{{{{",
"{{{9R_EEEoooKZV>{{{{",
"{{{8TTTWEEnnABN;{{{{",
"{{{7YYooooZvcxm-{{{{",
"{{{6PPooOgA@cxx={{{{",
"{{{5LLooooo#cll*{{{{",
"{{{1JJos%$&hzjjX{{{{",
"{{{<DDKbZBNczjj.{{{{",
"{{{:::::::::::: {{{{",
"{{{{{{{{{{{{{{{{{{{{",
"{{{{{{{{{{{{{{{{{{{{",
"{{{{{{{{{{{{{{{{{{{{"
};
