/* XPM */
static const char *save_as_xpm[] = {
/* columns rows colors chars-per-pixel */
"20 20 99 2 ",
"   c black",
".  c #504830",
"X  c #203040",
"o  c #303060",
"O  c #304040",
"+  c #404050",
"@  c #505850",
"#  c #505870",
"$  c #506070",
"%  c #606870",
"&  c #903830",
"*  c #B07060",
"=  c #D07860",
"-  c #908040",
";  c #B09050",
":  c #B09850",
">  c #B0A050",
",  c #D08870",
"<  c #E09070",
"1  c #D0C060",
"2  c #E0C870",
"3  c #E0D070",
"4  c #2048B0",
"5  c #404080",
"6  c #404890",
"7  c #504890",
"8  c #607080",
"9  c #606090",
"0  c #707890",
"q  c #5050A0",
"w  c #5058A0",
"e  c #4058B0",
"r  c #5058B0",
"t  c #6058B0",
"y  c #6068A0",
"u  c #4050C0",
"i  c #5058C0",
"p  c #5060C0",
"a  c #6060C0",
"s  c #6068C0",
"d  c #7068C0",
"f  c #7070C0",
"g  c #7078C0",
"h  c #6068D0",
"j  c #7070D0",
"k  c #7078E0",
"l  c #8078C0",
"z  c #8078D0",
"x  c #8078E0",
"c  c #7088D0",
"v  c #808080",
"b  c #808880",
"n  c #9098A0",
"m  c #8080B0",
"M  c #A0A0A0",
"N  c #A0A8B0",
"B  c #B0A8B0",
"V  c #B0B8B0",
"C  c #C0B890",
"Z  c #C0B8B0",
"A  c #F0E090",
"S  c #D8C4BF",
"D  c #8088C0",
"F  c #9090C0",
"G  c #8080D0",
"H  c #8088D0",
"J  c #9088D0",
"K  c #A0A8C0",
"L  c #B0A8C0",
"P  c #A0B0C0",
"I  c #B0B8C0",
"U  c #B0B8D0",
"Y  c #8080E0",
"T  c #8088F0",
"R  c #9088F0",
"E  c #9090F0",
"W  c #9098F0",
"Q  c #A098E0",
"!  c #A098F0",
"~  c #A098FF",
"^  c #A0A0FF",
"/  c #B0A8F0",
"(  c #B0A8FF",
")  c #C0B8C0",
"_  c #C0C0C0",
"`  c #D6D2CA",
"'  c #C0C0D0",
"]  c #C0C8D0",
"[  c #E0D8D0",
"{  c #D0E0F0",
"}  c gray88",
"|  c #E0E0F0",
" . c #E0E8F0",
".. c gray94",
"X. c #F0F0FF",
"o. c AliceBlue",
"O. c #FFF8FF",
"+. c gray100",
"@. c None",
/* pixels */
"@.@.@.@.@.@.@.@.@.@.@.@.@.@.@.@.@.@.@.@.",
"@.@.@.@.@.@.@.@.@.@.@.@.@.@.@.@.@.@.@.@.",
"@.@.@.@.@.@.@.@.@.@.@.@.@.@.@.@.@.@.@.@.",
"@.@.@.J H H G G z l g f f d d s s @.@.@.",
"@.@.@.H ( R +.+.+.+.+.+.+.o.i t t @.@.@.",
"@.@.@.H ( Y +.I I _ _ _ ) ..u o r @.@.@.",
"@.@.@.G ( k +.+.+.+.+.O.X. .e x q @.@.@.",
"@.@.@.G ( j +.v N @ M M }  .p x q @.@.@.",
"@.@.@.l ( j +.+.+.M +.C > [ c G w @.@.@.",
"@.@.@.g ( h +.+.O.. ; 3 A > I Q y @.@.@.",
"@.@.@.f ( ! h h H K . : 1 A - ' F @.@.@.",
"@.@.@.f ( ^ ^ E W / ' . : 1 A - ) @.@.@.",
"@.@.@.d ( ^ E $ $ 8 n V . : 1 A - ` @.@.",
"@.@.@.s ^ E T #   + {  .Z . : 2 U * S @.",
"@.@.@.a ~ T Y # O 0 |  .P B . b , < * @.",
"@.@.@.a E Y 4 X I I ' ] % D L & * = & @.",
"@.@.@.@.s r q q q 7 6 6 5 9 m B & & @.@.",
"@.@.@.@.@.@.@.@.@.@.@.@.@.@.@.@.@.@.@.@.",
"@.@.@.@.@.@.@.@.@.@.@.@.@.@.@.@.@.@.@.@.",
"@.@.@.@.@.@.@.@.@.@.@.@.@.@.@.@.@.@.@.@."
};
