/* XPM */
static const char *save_xpm[] = {
/* columns rows colors chars-per-pixel */
"20 20 76 1 ",
"  c black",
". c #203040",
"X c #303060",
"o c #303870",
"O c #403870",
"+ c #304040",
"@ c #505050",
"# c #505870",
"$ c #506070",
"% c #1038A0",
"& c #3038A0",
"* c #403880",
"= c #2040A0",
"- c #3040A0",
"; c #2048B0",
": c #3048B0",
"> c #3050B0",
", c #404080",
"< c #404890",
"1 c #504890",
"2 c #606880",
"3 c #607880",
"4 c #707890",
"5 c #4040A0",
"6 c #5050A0",
"7 c #4048B0",
"8 c #5050B0",
"9 c #5058B0",
"0 c #6058B0",
"q c #4050C0",
"w c #5058C0",
"e c #5060C0",
"r c #6060C0",
"t c #6068C0",
"y c #6060D0",
"u c #6068D0",
"i c #7068D0",
"p c #7070D0",
"a c #7078D0",
"s c #7078E0",
"d c #8078D0",
"f c #8078E0",
"g c SlateGray",
"h c #B0B8C0",
"j c #8080E0",
"k c #9088E0",
"l c #9090E0",
"z c #8088F0",
"x c #9088F0",
"c c #9090F0",
"v c #9090FF",
"b c #A098E0",
"n c #A098FF",
"m c #A0A0F0",
"M c #A0A8F0",
"N c #A0A0FF",
"B c #B0A8F0",
"V c #B0A8FF",
"C c #B0B0F0",
"Z c #B0B8F0",
"A c #B0B0FF",
"S c #B0B8FF",
"D c #C0B8FF",
"F c #C0C0D0",
"G c #C0C8D0",
"H c #C0C8E0",
"J c #C0D0E0",
"K c #C0C0FF",
"L c #D0D8F0",
"P c #D0E0F0",
"I c #E0E0F0",
"U c #E0E8F0",
"Y c gray94",
"T c AliceBlue",
"R c gray100",
"E c None",
/* pixels */
"EEEEEEEEEEEEEEEEEEEE",
"EEEEEEEEEEEEEEEEEEEE",
"EEEEEEEEEEEEEEEEEEEE",
"EEEZZCCBmbllkjdapEEE",
"EEECKvRRRRRRRTw00EEE",
"EEECKxRRRRRRTYqX9EEE",
"EEEMKjRRRRRTYU>f6EEE",
"EEEmKsRRRRTYUL:p6EEE",
"EEEbKpRRRTYULJ=u6EEE",
"EEElKuRRTYULJH%r1EEE",
"EEEkDSyewq>:=%rw<EEE",
"EEEjAANczjfpirw8<EEE",
"EEEdVNc####$2w87,EEE",
"EEEaNcz# +LP3775,EEE",
"EEEpnzj#+4IUg-5-*EEE",
"EEEicj;.hhFG@--&OEEE",
"EEEEt96661<<,**OoEEE",
"EEEEEEEEEEEEEEEEEEEE",
"EEEEEEEEEEEEEEEEEEEE",
"EEEEEEEEEEEEEEEEEEEE"
};
