/* XPM */
static const char *terrain_xpm[] = {
/* width height ncolors chars_per_pixel */
"20 20 6 1",
/* colors */
"` c #000000",
"a c #00BF00",
"b c None",
"c c #808080",
"d c #0000BF",
"e c #0000FF",
/* pixels */
"bbbbbbbbbbbbbbbbbbbb",
"bbbbbbbbbbbbbbbbbbbb",
"bbbc````````````cbbb",
"bbb`aaadeaaaaade`bbb",
"bbb`aaaedaaaaade`bbb",
"bbceaaadddaaaddeecbb",
"bbceaaadeedaaadddcbb",
"bb`ddaaadddaaaedd`bb",
"bb`eeaaaaaaaaadaa`bb",
"bb`edaaaaaaaaaaaa`bb",
"bcdedaaaeddeaaaaaacb",
"bcedaaaadeddaaaaaacb",
"b`edaaaaedddaaaaaa`b",
"b`edaaaaaedaaaaadadb",
"b`edaaaaaddaaaaadedb",
"cdeaaaaaaaddeedeeddc",
"`daaaaaaaaaddeeddee`",
"````````````````````",
"bbbbbbbbbbbbbbbbbbbb",
"bbbbbbbbbbbbbbbbbbbb"
};
