/* XPM */
static const char *unfold_xpm[] = {
/* columns rows colors chars-per-pixel */
"20 20 256 2",
"   c gray100",
".  c yellow",
"X  c magenta",
"o  c red",
"O  c cyan",
"+  c green",
"@  c blue",
"#  c black",
"$  c #2824CA",
"%  c #2824C3",
"&  c gray6",
"*  c #5F5662",
"=  c #7E7582",
"-  c #03020F",
";  c #05041E",
":  c #2620C7",
">  c #1311C1",
",  c #1915B3",
"<  c #1D19C6",
"1  c #231FCC",
"2  c #17158A",
"3  c #2320C0",
"4  c #2823CE",
"5  c #2925D3",
"6  c #2824C7",
"7  c #2E2BE0",
"8  c #0A092F",
"9  c #2A28CB",
"0  c #2421A4",
"q  c #3432CC",
"w  c #3330C3",
"e  c #1C1B68",
"r  c #2B2A95",
"t  c #6665D4",
"y  c #61609D",
"u  c #0707BA",
"i  c #010106",
"p  c #2A2AC4",
"a  c #0F0F46",
"s  c #3234B7",
"d  c #8383D0",
"f  c #0A0A0B",
"g  c #3B40C0",
"h  c #11121E",
"j  c #9A9BAA",
"k  c #4853B9",
"l  c #374BD8",
"z  c #3E4D93",
"x  c #3F4761",
"c  c #3D4347",
"v  c #242D28",
"b  c #212D1A",
"n  c #2A3F0C",
"m  c #384617",
"M  c #353A2A",
"N  c #495421",
"B  c #5B5B32",
"V  c #AC9C6F",
"C  c #88764C",
"Z  c #FEE2A5",
"A  c #716144",
"S  c #D8BD8E",
"D  c #1E1E1E",
"F  c gray100",
"G  c #CC0033",
"H  c #FF0033",
"J  c #003333",
"K  c gray20",
"L  c #663333",
"P  c #993333",
"I  c #CC3333",
"U  c #FF3333",
"Y  c #006633",
"T  c #336633",
"R  c #666633",
"E  c #996633",
"W  c #CC6633",
"Q  c #FF6633",
"!  c #009933",
"~  c #339933",
"^  c #669933",
"/  c #999933",
"(  c #CC9933",
")  c #FF9933",
"_  c #00CC33",
"`  c #33CC33",
"'  c #66CC33",
"]  c #99CC33",
"[  c #CCCC33",
"{  c #FFCC33",
"}  c #33FF33",
"|  c #66FF33",
" . c #99FF33",
".. c #CCFF33",
"X. c #FFFF33",
"o. c #000066",
"O. c #330066",
"+. c #660066",
"@. c #990066",
"#. c #CC0066",
"$. c #FF0066",
"%. c #003366",
"&. c #333366",
"*. c #663366",
"=. c #993366",
"-. c #CC3366",
";. c #FF3366",
":. c #006666",
">. c #336666",
",. c gray40",
"<. c #996666",
"1. c #CC6666",
"2. c #009966",
"3. c #339966",
"4. c #669966",
"5. c #999966",
"6. c #CC9966",
"7. c #FF9966",
"8. c #00CC66",
"9. c #33CC66",
"0. c #99CC66",
"q. c #CCCC66",
"w. c #FFCC66",
"e. c #00FF66",
"r. c #33FF66",
"t. c #99FF66",
"y. c #CCFF66",
"u. c #FF00CC",
"i. c #CC00FF",
"p. c #009999",
"a. c #993399",
"s. c #990099",
"d. c #CC0099",
"f. c #000099",
"g. c #333399",
"h. c #660099",
"j. c #CC3399",
"k. c #FF0099",
"l. c #006699",
"z. c #336699",
"x. c #663399",
"c. c #996699",
"v. c #CC6699",
"b. c #FF3399",
"n. c #339999",
"m. c #669999",
"M. c gray60",
"N. c #CC9999",
"B. c #FF9999",
"V. c #00CC99",
"C. c #33CC99",
"Z. c #66CC66",
"A. c #99CC99",
"S. c #CCCC99",
"D. c #FFCC99",
"F. c #00FF99",
"G. c #33FF99",
"H. c #66CC99",
"J. c #99FF99",
"K. c #CCFF99",
"L. c #FFFF99",
"P. c #0000CC",
"I. c #330099",
"U. c #6600CC",
"Y. c #9900CC",
"T. c #CC00CC",
"R. c #003399",
"E. c #3333CC",
"W. c #6633CC",
"Q. c #9933CC",
"!. c #CC33CC",
"~. c #FF33CC",
"^. c #0066CC",
"/. c #3366CC",
"(. c #666699",
"). c #9966CC",
"_. c #CC66CC",
"`. c #FF6699",
"'. c #0099CC",
"]. c #3399CC",
"[. c #6699CC",
"{. c #9999CC",
"}. c #CC99CC",
"|. c #FF99CC",
" X c #00CCCC",
".X c #33CCCC",
"XX c #66CCCC",
"oX c #99CCCC",
"OX c gray80",
"+X c #FFCCCC",
"@X c #00FFCC",
"#X c #33FFCC",
"$X c #66FF99",
"%X c #99FFCC",
"&X c #CCFFCC",
"*X c #FFFFCC",
"=X c #3300CC",
"-X c #6600FF",
";X c #9900FF",
":X c #0033CC",
">X c #3333FF",
",X c #6633FF",
"<X c #9933FF",
"1X c #CC33FF",
"2X c #FF33FF",
"3X c #0066FF",
"4X c #3366FF",
"5X c #6666CC",
"6X c #9966FF",
"7X c #CC66FF",
"8X c #FF66CC",
"9X c #0099FF",
"0X c #3399FF",
"qX c #6699FF",
"wX c #9999FF",
"eX c #CC99FF",
"rX c #FF99FF",
"tX c #00CCFF",
"yX c #33CCFF",
"uX c #66CCFF",
"iX c #99CCFF",
"pX c #CCCCFF",
"aX c #FFCCFF",
"sX c #33FFFF",
"dX c #66FFCC",
"fX c #99FFFF",
"gX c #CCFFFF",
"hX c #FF6666",
"jX c #66FF66",
"kX c #FFFF66",
"lX c #6666FF",
"zX c #FF66FF",
"xX c #66FFFF",
"cX c #A50021",
"vX c #5F5F5F",
"bX c #777777",
"nX c #868686",
"mX c gray59",
"MX c #CBCBCB",
"NX c #B2B2B2",
"BX c #D7D7D7",
"VX c #DDDDDD",
"CX c gray89",
"ZX c #EAEAEA",
"AX c #F1F1F1",
"SX c #F8F8F8",
"DX c #FFFBF0",
"FX c #A0A0A4",
"GX c #808080",
"HX c red",
"JX c green",
"KX c yellow",
"LX c blue",
"PX c magenta",
"IX c cyan",
"UX c gray100",
/* pixels */
"z A * (.< , x N M w s s s w e f f f f f ",
"k A C M v c N V S = u 1 5 % - i i i i i ",
"E.M N m n N V Z Z = u $ 5 a i i i i i i ",
"v x N m n V Z Z S * > 5 0 i i i i i i i ",
"f , * B C Z Z V * M s 5 8 i i i i i i i ",
"i a = C C S = x b m x 2 i i i i i i i i ",
"i i 0 = S S C M m b x ; i i i i i i i a ",
"2 2 2 = V V A N m b b 2 e r r e 2 2 2 s ",
"5 5 > u = S V B n b z $ = j t b v k l k ",
"$ % (.B V C V N n c 5 d   * * b n n v k ",
"% % (.B C V C m n M t > = * M b n N v c ",
"% % > M B V V m n N t > > c m m B C C M ",
"p c c N N A V N n m M k z m m b B C * p ",
"z v z x n N C B m b m M M M t s g k < 1 ",
"s b z s x b b m b s z $ w 9 , % 1 < % % ",
"g s g g 2 i h z z $ 1 1 $ $ - 8 $ % % % ",
"* z 2 ; i i 8 p 9 $ $ $ 5 e i i 0 $ % % ",
"c c 8 i i i 8 5 $ $ $ $ % - i i ; 9 p % ",
"g s a i i i 8 5 $ $ $ 5 a i i i i 2 $ % ",
"9 E.e f f f h r E.w E.s h f f f f h w w "
};
