/* XPM */
static const char *vehicles_xpm[] = {
/* columns rows colors chars-per-pixel */
"20 20 256 2",
"   c None",
".  c #C6BDBD",
"X  c #C3BFBF",
"o  c #C3BEBE",
"O  c #BFC0C0",
"+  c #BEBEC1",
"@  c #C4BFBF",
"#  c #C7BDBD",
"$  c #F5CB31",
"%  c #BEBFC1",
"&  c #C9BFBF",
"*  c #101118",
"=  c #33373B",
"-  c #7F8C7C",
";  c #C9CACA",
":  c #121216",
">  c #C7A833",
",  c #615D41",
"<  c #D3B654",
"1  c #BFA02C",
"2  c #FFD93C",
"3  c #C9BDA0",
"4  c #BDB489",
"5  c #445656",
"6  c #DFB415",
"7  c #E3BC2B",
"8  c #21242D",
"9  c #867F55",
"0  c #DDB109",
"q  c #70726D",
"w  c #05030A",
"e  c #0E0A09",
"r  c #CAB263",
"t  c #373129",
"y  c #BFBFC0",
"u  c #8A8257",
"i  c #D0B874",
"p  c gray77",
"a  c #E9D182",
"s  c #D2B344",
"d  c #2D3639",
"f  c #B3A790",
"g  c #C3BCC2",
"h  c #FFE36B",
"j  c #645010",
"k  c #EBC324",
"l  c #C6BCBD",
"z  c #6D645F",
"x  c #CDC8C5",
"c  c #C5BCBF",
"v  c #C5BCBD",
"b  c #FFD335",
"n  c #9F884D",
"m  c #26373B",
"M  c #716C54",
"N  c #635323",
"B  c #383231",
"V  c #BE9E34",
"C  c #C2BEC0",
"Z  c #C6BCBE",
"A  c #BEBFC3",
"S  c #FFDA3B",
"D  c #47646E",
"F  c #BB9F37",
"G  c #CAC8BD",
"H  c #C5BEC6",
"J  c #846B1B",
"K  c #C0C1C1",
"L  c #57492F",
"P  c #ACA98B",
"I  c #C6C2C3",
"U  c #F7D65B",
"Y  c #C9BFC0",
"T  c #9A8F51",
"R  c #6E8982",
"E  c #111121",
"W  c #D2C488",
"Q  c #CBC2C6",
"!  c #979067",
"~  c #EED884",
"^  c #8A9882",
"/  c #D2AB19",
"(  c #3A3E45",
")  c #BB9A21",
"_  c #42382D",
"`  c #765901",
"'  c #CA9E10",
"]  c #CCBD99",
"[  c #FFE061",
"{  c #94885E",
"}  c #6F5B16",
"|  c #3B4947",
" . c #F9D851",
".. c #EFC522",
"X. c #D9D6C2",
"o. c #535743",
"O. c #C4C0C0",
"+. c #C7C0C1",
"@. c #BC9A16",
"#. c #C9C0C1",
"$. c #C5B358",
"%. c #C4BDC7",
"&. c #837E74",
"*. c #D1CCBB",
"=. c #FFD230",
"-. c #434C43",
";. c #9A8D4D",
":. c #89804E",
">. c #736D6C",
",. c #26383B",
"<. c #CBA412",
"1. c #0B0612",
"2. c #AAA191",
"3. c #F7D561",
"4. c #787A5E",
"5. c #C7BDC0",
"6. c #F5CB21",
"7. c #C8C0BF",
"8. c #C8A524",
"9. c #425252",
"0. c #C8BEBE",
"q. c #C7BDBE",
"w. c #BEBFC2",
"e. c #D6D1B8",
"r. c #F6CB28",
"t. c #CAC1C2",
"y. c #45656F",
"u. c #756533",
"i. c #A0811D",
"p. c #6C6460",
"a. c #6B7D71",
"s. c #E5C44B",
"d. c #C2BBC0",
"f. c #E8C859",
"g. c #C3BCC5",
"h. c #FFE44E",
"j. c #4A4434",
"k. c #F2CF41",
"l. c #4C513F",
"z. c #5F5122",
"x. c #D1C690",
"c. c #DCC993",
"v. c #8999A0",
"b. c #9CA991",
"n. c #FBCF2B",
"m. c #A29A66",
"M. c #EED37A",
"N. c #395A6C",
"B. c #C4BA8C",
"V. c #DEBA2D",
"C. c #CDC4B7",
"Z. c #97A2A4",
"A. c #88722A",
"S. c #C0B8BE",
"D. c #937E37",
"F. c #BCB3B3",
"G. c #85753F",
"H. c #C9C4C4",
"J. c #99987F",
"K. c #271C1B",
"L. c #EBD78C",
"P. c #898080",
"I. c #FDDD62",
"U. c #DFBE4D",
"Y. c #EEC635",
"T. c #F7CF3C",
"R. c #B39627",
"E. c #5F625D",
"W. c #BA9C2F",
"Q. c #DCD5B2",
"!. c #7A958E",
"~. c #C2BABA",
"^. c #463711",
"/. c #FCE07C",
"(. c #C1B698",
"). c #DCCF9E",
"_. c #D2AE2D",
"`. c #A3A1A5",
"'. c #A9A5A4",
"]. c #CEC3C2",
"[. c #947612",
"{. c #CEC183",
"}. c #625019",
"|. c #A29D9C",
" X c #274352",
".X c #C59F1B",
"XX c #FFDD51",
"oX c #D2A80B",
"OX c #ECC024",
"+X c #F9DA74",
"@X c #D4D2C0",
"#X c #DFC56E",
"$X c #C8C0CB",
"%X c #CCC5C8",
"&X c #D9CFAF",
"*X c #E0B20E",
"=X c #D3CCAD",
"-X c #C6C1C2",
";X c #B5951B",
":X c #AE9025",
">X c #CFCCC1",
",X c #CAC3C3",
"<X c #FFDD47",
"1X c #CAB554",
"2X c #776C3B",
"3X c #3D321C",
"4X c #C7BEC4",
"5X c #575637",
"6X c #D0C7BC",
"7X c #495854",
"8X c #817D7C",
"9X c #A18A37",
"0X c #C4BBB6",
"qX c #D2AB13",
"wX c #484044",
"eX c #A5AAA5",
"rX c #D0B33D",
"tX c #BEBFC0",
"yX c #716866",
"uX c #554F4E",
"iX c #B4A983",
"pX c #2C3636",
"aX c #493E38",
"sX c #5A5552",
"dX c #F9DB7B",
"fX c #C5A435",
"gX c #ADA394",
"hX c #C3B77A",
"jX c #F5D363",
"kX c #67562A",
"lX c #7B775A",
"zX c #FADC58",
"xX c #847D5A",
"cX c #C6BEC3",
"vX c #F2CA22",
"bX c #6B605B",
"nX c #B09537",
"mX c #CBC0BF",
"MX c #C6A627",
"NX c #C5AF6B",
"BX c #DEB20C",
"VX c #C0B8B7",
"CX c #C5BEBE",
"ZX c #C7BEBE",
"AX c #C7BDBF",
"SX c #D0CBC7",
"DX c #D0CDC6",
"FX c #BFBFC3",
"GX c #D7D0B9",
"HX c #CACBCB",
"JX c #F5CA29",
"KX c #C3BFBE",
"LX c #CAC0C3",
"PX c #302D23",
"IX c #262229",
"UX c #746225",
/* pixels */
"                                        ",
"                                        ",
"              O O y tX% + + w.FXA %     ",
"X X X X X o @ ,Xx SXDX>X@XX.e.=XQ.*.C KX",
". . . . . 0.AXeXP 4 x.W hXm.u xX:.{.#.l ",
". . . . ZXmXv.R a.5 4.9 7Xm | - = 2Xc.g.",
". . . . ].Z.!.b.^ 9.lXd ,.pX: w e 9XI.C.",
". v c t.`.N.y.D  X-.;.5X* PX3XG.1XzX<X#X",
"Z +.6X&XB.! , o.l.T :XrX$.U. .h.2 $ =.s.",
"7.).a M.+XdX/.h [ XXk.T.S $ n.r.JX7 J > ",
"3 f.jXU L.GX3.<Xb OX6.vXk V.MX8...UXE N ",
"J.z.A.< G ~ Y.} j 1 F nXW.) @.qX<.j.E.uX",
"{ ( 8 M iXr kXIX1.}..X' oX0 BX6 ;Xt q |.",
"f L ^.i.fXV _ yXwX` *X/ _.s NX] 2.B sX~.",
"%XgXu.D.R.[.aX&.p.n i (.0Xg %.H Q VXF.Y ",
"# LXd.cXCXP.K.bXz S.$X4X5.q.# . . & & . ",
"o X O.@ -XI 8X>.'.H.o o o X X X X o o X ",
"        O K ; HXp O                     ",
"                                        ",
"                                        "
};
