/* XPM */
static const char *geode_xpm[] = {
/* columns rows colors chars-per-pixel */
"16 16 7 1",
"  c black",
". c navy",
"X c blue",
"o c #008000",
"O c green",
"+ c #C0C0C0",
"@ c None",
/* pixels */
"@@@@@@@ @@@@@@@@",
"@@@@@@   @@@@@@@",
"@@@@@ O  +@@@@@@",
"@@@@ OO X @@@@@@",
"@@@ OOO XX @@@@@",
"@@ OOOO XXX @@@@",
"@ OOOOO.XXX +@@@",
" OOOOOo.XXXX @@@",
"+ OOOOo.XXXXX @@",
"@ OOOO XXXXXXX @",
"@@ OOO XXXXXXX +",
"@@@ OO XXXXXXX  ",
"@@@+ O XXX    +@",
"@@@@ O    +@@@@@",
"@@@@@  +@@@@@@@@",
"@@@@@@@@@@@@@@@@"
};
