/* XPM */
static const char *group_xpm[] = {
/* columns rows colors chars-per-pixel */
"16 16 4 1",
"  c black",
". c #808000",
"X c yellow",
"o c None",
/* pixels */
"oooooooooooooooo",
"ooooo.    .ooooo",
"ooo. XXXXXX .ooo",
"oo. XXXXXXXX .oo",
"oo XXX.  .XXX oo",
"o..XX .oo. XX..o",
"o XX..oooo..XX.o",
"o XX oooooo XX o",
"o XX oooooo XX o",
"o XX..oooo..XX.o",
"o..XX .oo. XX..o",
"oo XXX.  .XXX oo",
"ooo XXXXXXXX ooo",
"oooo XXXXXX oooo",
"ooooo.    .ooooo",
"oooooooooooooooo"
};
