/* XPM */
static const char *mesh_xpm[] = {
/* columns rows colors chars-per-pixel */
"16 16 6 1",
"  c black",
". c #008000",
"X c green",
"o c #808080",
"O c #C0C0C0",
"+ c None",
/* pixels */
"++++++++++++++++",
"++++++++++++++++",
"+++++++ ++++++++",
"++++++O. +++++++",
"++++++ X.O++++++",
"+++++O.XX ++++++",
"+++++ XXX.O+++++",
"++++O.XXXX +++++",
"++++ XXXXXX.++++",
"++++.XXXXXX ++++",
"+++.XXXXXXXX +++",
"+++ XXXXXXXX.O++",
"++O.XXXXXXXXX ++",
"++ XXXXXXXXXXXo+",
"++             +",
"++++++++++++++++"
};
