/* XPM */
static const char *shadow_xpm[] = {
/* columns rows colors chars-per-pixel */
"16 16 6 1 ",
"  c black",
". c gray26",
"X c #808080",
"o c #FFFEFD",
"O c gray100",
"+ c None",
/* pixels */
"++++++++++++++++",
"++++++++++++++++",
"++XXXX++++++++++",
"++XooX++++++++++",
"++XooX++++++++++",
"++XooX++++++++++",
"++XooX+++++     ",
"++XooX++++  .  +",
"++XooX++   .  ++",
"++XooX+     ++++",
"++XooX  . ++++++",
"++XooX   +++++++",
"++XooX  ++++++++",
"++XooX++++++++++",
"++++++++++++++++",
"++++++++++++++++"
};
