/* XPM */
static const char *xform_xpm[] = {
/* columns rows colors chars-per-pixel */
"16 16 6 1",
"  c black",
". c blue",
"X c green",
"o c red",
"O c #808000",
"+ c None",
/* pixels */
"++++++++++++++++",
"++++++++++++++++",
"+++XX+++++++++++",
"++XXXX++++...+++",
"+++XX+++++...+++",
"+++XX++++....+++",
"+++XX+++...+++++",
"+++XX++...++++++",
"+++XX+...+++++++",
"+++XX...++++++++",
"+++XX..+++++o+++",
"+++XOooooooooo++",
"+++Ooooooooooo++",
"++++++++++++o+++",
"++++++++++++++++",
"++++++++++++++++"
};
