/* XPM */
static const char *vtbuilder_xpm[] = {
/* columns rows colors chars-per-pixel */
"32 32 7 1",
"  c black",
". c #008080",
"X c #800080",
"o c #A0A000",
"O c yellow",
"+ c #808080",
"@ c #C0C0C0",
/* pixels */
"................................",
"................................",
"................................",
"................................",
".........                  .....",
"........ oooooooooooooooo  .....",
"....... oooooooooooooooo o .....",
"......                  oo .....",
"...... OOOOOOOOOOOOOOOO oo .....",
"...... OOOOOOOOOOOOOOOO oo .....",
"...... OOOOOOOOOOOOOOOO o ......",
"...... OOOOOOOOOOOOOOOO  .......",
"......       OOOO       ........",
"............ OOOO oo ...........",
"............ OOOO oo ...........",
"............ OOOO oo ...........",
"............ OOOO oo ...........",
"+++++++++++. OOOO oo +++++++++++",
"XXXXXXXXXXXX OOOO oo XXXXXXXXXXX",
"@@@@@X@@@@X@ OOOO oo @X@@@@X@@@@",
"XXXXXXXXXXX@ OOOO oo @XXXXXXXXXX",
"@@@@X@@@@@X@ OOOO oo @X@@@@@X@@@",
"XXXXXXXXXXX@ OOOO oo @XXXXXXXXXX",
"@@@X@@@@@X@@ OOOO oo @@X@@@@@X@@",
"@@@X@@@@@X@@ OOOO oo @@X@@@@@@X@",
"XXXXXXXXXXX@ OOOO o @XXXXXXXXXXX",
"@@X@@@@@@X@@ OOOO  @@@@@X@@@@@@X",
"@@X@@@@@@X@@      @@@@@@X@@@@@@X",
"@X@@@@@@X@@@@@@@X@@@@@@@X@@@@@@@",
"XXXXXXXXXXXXXXXXXXXXXXXXXXXXXXXX",
"X@@@@@@@X@@@@@@@X@@@@@@@@X@@@@@@",
"X@@@@@@@X@@@@@@@X@@@@@@@@X@@@@@@"
};
